<svg xmlns="http://www.w3.org/2000/svg" xmlns:xlink="http://www.w3.org/1999/xlink" width="40" height="27" viewBox="0 0 40 27"><defs><path id="a" d="M419 188.65c0 5.16-4.3 9.35-9.57 9.35a9.58 9.58 0 0 1-7.97-4.15h-4.92a9.58 9.58 0 0 1-7.97 4.15 9.47 9.47 0 0 1-9.57-9.35c0-5.15 4.3-9.34 9.57-9.34h7.24v-.63a1.9 1.9 0 0 1 1.91-1.87h.64v-2.7a3.16 3.16 0 0 1 3.2-3.11h10.84c.36 0 .64.28.64.62 0 .35-.28.63-.64.63h-10.85a1.9 1.9 0 0 0-1.91 1.86v2.7h.64a1.9 1.9 0 0 1 1.91 1.87v.63h7.24c5.27 0 9.57 4.19 9.57 9.34zm-21.92-9.97v.63h3.83v-.63a.63.63 0 0 0-.63-.62h-2.56a.63.63 0 0 0-.64.63zm20.64 9.97a8.2 8.2 0 0 0-8.3-8.1h-20.85a8.21 8.21 0 0 0-8.3 8.1c0 4.47 3.73 8.1 8.3 8.1a8.3 8.3 0 0 0 7.07-3.85c.12-.19.33-.3.55-.3h5.62c.22 0 .43.11.55.3a8.3 8.3 0 0 0 7.07 3.85c4.57 0 8.3-3.63 8.3-8.1zm-23.4-1.24v2.49c0 .34-.29.62-.64.62h-3.2v3.12c0 .34-.28.62-.63.62h-2.55a.63.63 0 0 1-.64-.62v-3.12h-3.2a.63.63 0 0 1-.63-.62v-2.5c0-.34.29-.62.64-.62h3.19v-3.11c0-.35.29-.62.64-.62h2.55c.35 0 .64.27.64.62v3.11h3.2c.34 0 .63.28.63.63zm-1.28 1.87v-1.25h-3.19a.63.63 0 0 1-.64-.62v-3.12h-1.27v3.12c0 .34-.29.62-.64.62h-3.2v1.25h3.2c.35 0 .64.28.64.62v3.11h1.27v-3.11c0-.34.29-.62.64-.62zm7.24-.63c0 .35-.29.63-.64.63h-1.28a.63.63 0 0 1-.64-.63c0-.34.29-.62.64-.62h1.28c.35 0 .64.28.64.62zm11.06 3.74a1.9 1.9 0 0 1-1.91 1.87 1.9 1.9 0 0 1-1.92-1.87 1.9 1.9 0 0 1 1.92-1.87 1.9 1.9 0 0 1 1.91 1.87zm-1.28 0a.63.63 0 0 0-.63-.62.63.63 0 0 0-.64.62c0 .35.28.63.64.63.35 0 .63-.28.63-.63zm1.28-7.47a1.9 1.9 0 0 1-1.91 1.87 1.9 1.9 0 0 1-1.92-1.87 1.9 1.9 0 0 1 1.92-1.87 1.9 1.9 0 0 1 1.91 1.86zm-1.28 0a.63.63 0 0 0-.63-.63.63.63 0 0 0-.64.63c0 .34.28.62.64.62.35 0 .63-.28.63-.63zm-2.55 3.73a1.9 1.9 0 0 1-1.91 1.87 1.9 1.9 0 0 1-1.92-1.87 1.9 1.9 0 0 1 1.92-1.87 1.9 1.9 0 0 1 1.91 1.87zm-1.28 0a.63.63 0 0 0-.63-.62.63.63 0 0 0-.64.62c0 .35.28.63.64.63.35 0 .63-.28.63-.63zm8.94 0a1.9 1.9 0 0 1-1.92 1.87 1.9 1.9 0 0 1-1.91-1.87 1.9 1.9 0 0 1 1.92-1.87 1.9 1.9 0 0 1 1.91 1.87zm-1.28 0a.63.63 0 0 0-.63-.62.63.63 0 0 0-.64.62c0 .35.28.63.64.63.35 0 .63-.28.63-.63z"/></defs><desc>Generated with Avocode.</desc><g transform="translate(-379 -171)"><use xlink:href="#a"/><use fill="#fff" xlink:href="#a"/></g></svg>