<svg xmlns="http://www.w3.org/2000/svg" xmlns:xlink="http://www.w3.org/1999/xlink" width="27" height="27" viewBox="0 0 27 27"><defs><path id="a" d="M1130.25 182.2v1.67h3.12c.35 0 .63.28.63.63s-.28.63-.63.63h-3.12v1.68h3.12c.35 0 .63.28.63.63s-.28.63-.63.63h-3.12v1.67h3.12c.35 0 .63.29.63.64 0 .35-.28.63-.63.63h-3.12v2.6c0 .36-.28.64-.63.64h-2.61v3.12a.63.63 0 1 1-1.26 0v-3.12h-1.68v3.12a.63.63 0 1 1-1.26 0v-3.12h-1.68v3.12a.63.63 0 1 1-1.26 0v-3.12h-1.68v3.12a.63.63 0 1 1-1.26 0v-3.12h-1.68v3.12a.63.63 0 1 1-1.26 0v-3.12h-2.61a.63.63 0 0 1-.63-.63v-2.6h-3.12a.63.63 0 0 1-.63-.64c0-.35.28-.64.63-.64h3.12v-1.67h-3.12a.63.63 0 0 1-.63-.63c0-.35.28-.63.63-.63h3.12v-1.68h-3.12a.63.63 0 0 1-.63-.63c0-.35.28-.63.63-.63h3.12v-1.68h-3.12a.63.63 0 0 1-.63-.63c0-.35.28-.63.63-.63h3.12v-1.68h-3.12a.63.63 0 0 1-.63-.63c0-.35.28-.63.63-.63h3.12v-2.6c0-.36.28-.64.63-.64h2.61v-3.12a.63.63 0 1 1 1.26 0v3.12h1.68v-3.12a.63.63 0 1 1 1.26 0v3.12h1.68v-3.12a.63.63 0 1 1 1.26 0v3.12h1.68v-3.12a.63.63 0 1 1 1.26 0v3.12h1.68v-3.12a.63.63 0 1 1 1.26 0v3.12h2.61c.35 0 .63.28.63.63v2.6h3.12c.35 0 .63.3.63.64 0 .35-.28.63-.63.63h-3.12v1.68h3.12c.35 0 .63.28.63.63s-.28.63-.63.63zm-1.27 1.67v-1.68h-.56a.63.63 0 0 1-.63-.63c0-.35.28-.63.63-.63h.56v-1.68h-.56a.63.63 0 0 1-.63-.63c0-.35.28-.63.63-.63h.56v-1.97h-1.97v.56a.63.63 0 1 1-1.26 0v-.56h-1.68v.56a.63.63 0 1 1-1.26 0v-.56h-1.68v.56a.63.63 0 1 1-1.26 0v-.56h-1.68v.56a.63.63 0 1 1-1.26 0v-.56h-1.68v.56a.63.63 0 1 1-1.26 0v-.56h-1.97v1.97h.56c.35 0 .63.28.63.63s-.28.63-.63.63h-.56v1.68h.56c.35 0 .63.28.63.63s-.28.63-.63.63h-.56v1.68h.56c.35 0 .63.28.63.63s-.28.63-.63.63h-.56v1.68h.56c.35 0 .63.28.63.63s-.28.63-.63.63h-.56v1.67h.56c.35 0 .63.29.63.64 0 .35-.28.63-.63.63h-.56v1.97h1.97v-.56a.63.63 0 1 1 1.26 0v.56h1.68v-.56a.63.63 0 1 1 1.26 0v.56h1.68v-.56a.63.63 0 1 1 1.26 0v.56h1.68v-.56a.63.63 0 1 1 1.26 0v.56h1.68v-.56a.63.63 0 1 1 1.26 0v.56h1.97v-1.97h-.56a.63.63 0 0 1-.63-.63c0-.35.28-.64.63-.64h.56v-1.67h-.56a.63.63 0 0 1-.63-.63c0-.35.28-.63.63-.63h.56v-1.68h-.56a.63.63 0 0 1-.63-.63c0-.35.28-.63.63-.63zm-4.44-2.78v6.82c0 .35-.28.63-.63.63h-6.82a.63.63 0 0 1-.63-.63v-6.82c0-.35.28-.63.63-.63h6.82c.35 0 .63.28.63.63zm-1.27.64h-5.54v5.54h5.54z"/></defs><desc>Generated with Avocode.</desc><g transform="translate(-1107 -171)"><use xlink:href="#a"/><use fill="#fff" xlink:href="#a"/></g></svg>