<svg xmlns="http://www.w3.org/2000/svg" xmlns:xlink="http://www.w3.org/1999/xlink" width="39" height="27" viewBox="0 0 39 27"><defs><path id="a" d="M657.9 197.73a.66.66 0 0 1-.54.27h-37.66a.66.66 0 0 1-.61-.91l3.25-7.78v-17.65c0-.37.3-.66.66-.66h31.73c.36 0 .66.3.66.66v17.67l2.6 7.8c.08.2.04.42-.08.6zm-34.25-8.95h30.4v-16.46h-30.4zm32.8 7.9l-2.21-6.58h-30.8l-2.76 6.58zm-25.53-23.32l.94.93-5.35 5.33-.93-.94zm-4.62 9.77l-.94-.93 8.87-8.84.93.93zm6.61 12.9v-1.31h11.25v1.31zm12.56 0v-1.31h3.31v1.31zm-17.19 0v-1.31h3.31v1.31z"/></defs><desc>Generated with Avocode.</desc><g transform="translate(-619 -171)"><use xlink:href="#a"/><use fill="#fff" xlink:href="#a"/></g></svg>