<svg xmlns="http://www.w3.org/2000/svg" width="39" height="48" viewBox="0 0 40 50"><defs><linearGradient id="a" x1="529" x2="568" y1="513" y2="513" gradientUnits="userSpaceOnUse"><stop offset="0" stop-color="#15bfff"/><stop offset="1" stop-color="#32c09d"/></linearGradient></defs><path fill="#16bfff" d="M40 20.87C40 9.89 31.27.98 20.5.98S1 9.88 1 20.87c0 .35.03.69.05 1.03-.02.16-.05.33-.05.5 0 12.24 18 26.1 18 26.1s1.5 1.15 3 0c1.5-1.14 18-13.86 18-26.1 0-.17-.04-.34-.05-.5.02-.34.05-.68.05-1.03zm-19.5 7.65a7.58 7.58 0 0 1-7.5-7.65 7.58 7.58 0 0 1 7.5-7.65c4.14 0 7.5 3.43 7.5 7.65a7.58 7.58 0 0 1-7.5 7.65z"/><path fill="url(#a)" d="M568 508.87c0-10.98-8.73-19.89-19.5-19.89s-19.5 8.9-19.5 19.89c0 .35.03.69.05 1.03-.02.16-.05.33-.05.5 0 12.24 18 26.1 18 26.1s1.5 1.15 3 0c1.5-1.14 18-13.86 18-26.1 0-.17-.04-.34-.05-.5.01-.34.05-.68.05-1.03zm-19.5 7.65a7.58 7.58 0 0 1-7.5-7.65 7.58 7.58 0 0 1 7.5-7.65c4.14 0 7.5 3.43 7.5 7.65a7.58 7.58 0 0 1-7.5 7.65z" transform="translate(-528 -488)"/></svg>