<svg xmlns="http://www.w3.org/2000/svg" width="57" height="54" viewBox="0 0 57 54"><defs><linearGradient id="a" x1="984.86" x2="1040" y1="561.72" y2="524.52" gradientUnits="userSpaceOnUse"><stop offset="0" stop-color="#32c09d"/><stop offset="1" stop-color="#15bfff"/></linearGradient></defs><path fill="#1b1b1b" d="M38.25 39.5c-.37 0-.74-.12-1.05-.36l-7.15-5.5v15.54l13.81-7.87v-5.2l-4.65 3.1c-.29.2-.63.29-.96.29zm-18.63-.36c-.59.45-1.39.48-2 .07l-4.82-3.22v5.32l13.8 7.76V33.8zM2.86 29.35a1.73 1.73 0 0 1-.11-2.8l7.63-6-8.9-7.5a1.73 1.73 0 0 1 .19-2.79L17.04.65c.62-.4 1.43-.34 2 .12l9.39 7.61L37.82.77a1.73 1.73 0 0 1 2-.12l15.38 9.61a1.75 1.75 0 0 1 .19 2.79l-8.91 7.5 7.6 6a1.74 1.74 0 0 1-.11 2.8l-6.69 4.47c.02.1.03.21.03.32v8.13c0 .6-.31 1.16-.82 1.48L29.34 53.6a1.76 1.76 0 0 1-1.81 0l-17.36-9.85a1.73 1.73 0 0 1-.82-1.48v-6.93c0-.5.22-.96.56-1.28zm3.9-1.55l11.74 7.85 6.91-5.3-12.18-7.65zm24.69 2.56l6.87 5.29 11.75-7.86-6.44-5.08zm-15.13-9.8l12.11 7.61 12.11-7.6-12.11-7.9zm15.04-10.1l12.26 7.99 7.73-6.52-12.31-7.7zM5.51 11.92l7.74 6.52 12.25-8-7.67-6.22z"/><path fill="url(#a)" d="M1022.25 555.5c-.37 0-.74-.12-1.05-.36l-7.15-5.5v15.54l13.81-7.87v-5.2l-4.65 3.1c-.29.2-.63.29-.96.29zm-18.63-.36c-.59.45-1.39.48-2 .07l-4.82-3.22v5.32l13.8 7.76V549.8zm-16.76-9.79a1.73 1.73 0 0 1-.11-2.8l7.63-6-8.9-7.5a1.73 1.73 0 0 1 .19-2.79l15.37-9.61c.62-.4 1.43-.34 2 .12l9.39 7.61 9.39-7.61a1.73 1.73 0 0 1 2-.12l15.38 9.61a1.75 1.75 0 0 1 .19 2.79l-8.91 7.5 7.6 6a1.74 1.74 0 0 1-.11 2.8l-6.69 4.47c.02.1.03.21.03.32v8.13c0 .6-.31 1.16-.82 1.48l-17.15 9.85a1.76 1.76 0 0 1-1.81 0l-17.36-9.85a1.73 1.73 0 0 1-.82-1.48v-6.93c0-.5.22-.96.56-1.28zm3.9-1.55l11.74 7.85 6.91-5.3-12.18-7.65zm24.69 2.56l6.87 5.29 11.75-7.86-6.44-5.08zm-15.13-9.8l12.11 7.61 12.11-7.6-12.11-7.9zm15.04-10.1l12.26 7.99 7.73-6.52-12.31-7.7zm-25.85 1.47l7.74 6.52 12.25-8-7.67-6.22z" transform="translate(-984 -516)"/></svg>