<svg xmlns="http://www.w3.org/2000/svg" width="57" height="57" viewBox="0 0 57 57"><defs><linearGradient id="a" x1="1140.9" x2="1196.08" y1="562.09" y2="524.87" gradientUnits="userSpaceOnUse"><stop offset="0" stop-color="#32c09d"/><stop offset="1" stop-color="#15bfff"/></linearGradient></defs><path fill="#1b1b1b" d="M1.01 31.3c.01-1.39.13-3.72.15-4.05C1.97 12.16 13.91.78 28.65.78A26.96 26.96 0 0 1 55.77 25.1c.14 1.23.32 5.52.31 6.66 0 .17-.03.34-.07.5.04.26.07.54.07.82V44.6a4.6 4.6 0 0 1-2.66 4.17c-.16.16-.35.3-.57.39l-17.77 6.98-3 .02h-5.31c-.95 0-1.72-.77-1.72-1.73v-1.73c0-.95.77-1.72 1.72-1.72h5.18c.95 0 1.73.77 1.73 1.72V53l11.04-4.34a4.6 4.6 0 0 1-2.4-4.04V33.07c0-2.53 2.05-4.6 4.58-4.6h4.6c.36 0 .7.05 1.04.12-.06-1.3-.14-2.6-.2-3.11A23.54 23.54 0 0 0 28.65 4.24c-12.88 0-23.33 9.97-24.04 23.2l-.06 1.13c.3-.06.61-.1.93-.1h4.65a4.59 4.59 0 0 1 4.58 4.6v11.6c0 2.52-2.05 4.58-4.58 4.58H5.48A4.59 4.59 0 0 1 .9 44.66v-11.6c0-.34.04-.67.11-1zm45.89.63c-.62 0-1.13.51-1.13 1.14V44.6c0 .63.51 1.13 1.13 1.13h4.6c.62 0 1.13-.5 1.13-1.13V33.07c0-.63-.51-1.14-1.13-1.14zm-41.42 0c-.63 0-1.13.51-1.13 1.14v11.6c0 .62.5 1.13 1.13 1.13h4.65c.63 0 1.13-.51 1.13-1.14v-11.6c0-.62-.5-1.13-1.13-1.13z"/><path fill="url(#a)" d="M1141.01 546.3c.01-1.39.13-3.72.15-4.05.81-15.09 12.75-26.47 27.49-26.47a26.96 26.96 0 0 1 27.12 24.31c.14 1.23.32 5.52.31 6.66 0 .17-.03.34-.07.5.04.26.07.54.07.82v11.54a4.6 4.6 0 0 1-2.66 4.17c-.16.16-.35.3-.57.39l-17.77 6.99h-3l-.13.01h-5.18c-.95 0-1.72-.77-1.72-1.73v-1.73c0-.95.77-1.73 1.72-1.73h5.18c.95 0 1.73.78 1.73 1.73v.28l11.04-4.34a4.6 4.6 0 0 1-2.4-4.04v-11.54c0-2.53 2.05-4.6 4.58-4.6h4.6c.36 0 .7.05 1.04.12-.06-1.3-.14-2.6-.2-3.11a23.54 23.54 0 0 0-23.69-21.24c-12.88 0-23.33 9.97-24.04 23.2l-.06 1.13c.3-.06.61-.1.93-.1h4.65a4.59 4.59 0 0 1 4.58 4.6v11.6c0 2.52-2.05 4.58-4.58 4.58h-4.65a4.59 4.59 0 0 1-4.58-4.59v-11.6c0-.34.04-.67.11-1zm45.89.63c-.62 0-1.13.51-1.13 1.14v11.54c0 .63.51 1.13 1.13 1.13h4.6c.62 0 1.13-.5 1.13-1.13v-11.54c0-.63-.51-1.14-1.13-1.14zm-41.42 0c-.63 0-1.13.51-1.13 1.14v11.6c0 .62.5 1.13 1.13 1.13h4.65c.63 0 1.13-.51 1.13-1.14v-11.6c0-.62-.5-1.13-1.13-1.13z" transform="translate(-1140 -515)"/></svg>