<svg xmlns="http://www.w3.org/2000/svg" width="56" height="53" viewBox="0 0 56 53"><defs><linearGradient id="a" x1="1297.08" x2="1352.22" y1="561.99" y2="524.8" gradientUnits="userSpaceOnUse"><stop offset="0" stop-color="#32c09d"/><stop offset="1" stop-color="#15bfff"/></linearGradient></defs><path fill="#1b1b1b" d="M41.19 52.1a1.73 1.73 0 0 1-.91-3.2 24.24 24.24 0 0 0 7.42-7.12l-1.73-1a1.73 1.73 0 0 1 1.73-2.99l1.7.99a24.12 24.12 0 0 0 2.3-8.72h-1.9a1.72 1.72 0 1 1 0-3.46h1.91a24.02 24.02 0 0 0-2.38-8.88l-1.63.95a1.72 1.72 0 0 1-2.36-.64 1.74 1.74 0 0 1 .63-2.36l1.63-.94a24.34 24.34 0 0 0-6.41-6.41l-.94 1.61a1.73 1.73 0 1 1-2.99-1.72l.94-1.63a23.9 23.9 0 0 0-8.86-2.38v2.17a1.72 1.72 0 1 1-3.45 0V4.2a23.9 23.9 0 0 0-8.68 2.32l.96 1.68a1.72 1.72 0 1 1-2.98 1.72l-.97-1.68a24.34 24.34 0 0 0-6.48 6.43l1.72 1c.83.47 1.11 1.52.63 2.35a1.71 1.71 0 0 1-2.35.64L6 17.66a24.02 24.02 0 0 0-2.4 8.9H5.5a1.73 1.73 0 1 1 0 3.45H3.59c.21 3.12 1.02 6.1 2.33 8.83l1.82-1.05c.82-.48 1.88-.2 2.35.63.48.83.2 1.89-.63 2.37l-1.82 1.05a24.22 24.22 0 0 0 7.21 6.95 1.73 1.73 0 0 1-1.84 2.93A27.63 27.63 0 0 1 27.65.68c15.2 0 27.57 12.4 27.57 27.63 0 9.66-4.91 18.46-13.13 23.53a1.7 1.7 0 0 1-.9.26zm-13.6-27.21c.62 0 1.2.16 1.7.45l9.36-5.41a1.73 1.73 0 0 1 1.73 2.99l-9.34 5.4v.02a3.45 3.45 0 1 1-3.45-3.45z"/><path fill="url(#a)" d="M1338.19 569.1a1.73 1.73 0 0 1-.91-3.2 24.24 24.24 0 0 0 7.42-7.12l-1.73-1a1.73 1.73 0 0 1 1.73-2.99l1.7.99a24.12 24.12 0 0 0 2.3-8.72h-1.9a1.72 1.72 0 1 1 0-3.46h1.91a24.02 24.02 0 0 0-2.38-8.88l-1.63.95a1.72 1.72 0 0 1-2.36-.64 1.74 1.74 0 0 1 .63-2.36l1.63-.94a24.34 24.34 0 0 0-6.41-6.41l-.94 1.61a1.73 1.73 0 1 1-2.99-1.72l.94-1.63a23.9 23.9 0 0 0-8.86-2.38v2.17a1.72 1.72 0 1 1-3.45 0v-2.16a23.9 23.9 0 0 0-8.68 2.32l.96 1.68a1.72 1.72 0 1 1-2.98 1.72l-.97-1.68a24.34 24.34 0 0 0-6.48 6.43l1.72 1c.83.47 1.11 1.52.63 2.35a1.71 1.71 0 0 1-2.35.64l-1.74-1.01a24.02 24.02 0 0 0-2.4 8.9h1.91a1.73 1.73 0 1 1 0 3.45h-1.92c.21 3.12 1.02 6.1 2.33 8.83l1.82-1.05c.82-.48 1.88-.2 2.35.63.48.83.2 1.89-.63 2.37l-1.82 1.05a24.22 24.22 0 0 0 7.21 6.95 1.73 1.73 0 0 1-1.84 2.93 27.63 27.63 0 0 1 14.64-51.04c15.2 0 27.57 12.4 27.57 27.63 0 9.66-4.91 18.46-13.13 23.53a1.7 1.7 0 0 1-.9.26zm-13.6-27.21c.62 0 1.2.16 1.7.45l9.36-5.41a1.73 1.73 0 0 1 1.73 2.99l-9.34 5.4v.02a3.45 3.45 0 1 1-3.45-3.45z" transform="translate(-1297 -517)"/></svg>