<?xml version="1.0" encoding="UTF-8"?><!DOCTYPE svg PUBLIC "-//W3C//DTD SVG 1.1//EN" "http://www.w3.org/Graphics/SVG/1.1/DTD/svg11.dtd"><svg xmlns="http://www.w3.org/2000/svg"><symbol id="icon-cart" viewBox="0 0 26 33">
    <path d="M26 28.66L24.12 8.03a.89.89 0 0 0-.89-.8h-3.82A6.38 6.38 0 0 0 13 1a6.38 6.38 0 0 0-6.42 6.22H2.76a.88.88 0 0 0-.9.8L.02 28.67l-.01.08C0 31.09 2.19 33 4.88 33h16.24c2.7 0 4.88-1.91 4.88-4.26v-.08zM13 2.76a4.6 4.6 0 0 1 4.62 4.46H8.38A4.6 4.6 0 0 1 13 2.77zm8.12 28.47H4.88c-1.7 0-3.06-1.1-3.09-2.45L3.57 9h3v2.68c0 .49.4.88.9.88s.9-.39.9-.88V9h9.25v2.68c0 .49.4.88.9.88s.9-.39.9-.88V9h3l1.79 19.78c-.03 1.35-1.4 2.45-3.09 2.45z"/>
</symbol></svg>