<svg xmlns="http://www.w3.org/2000/svg" xmlns:xlink="http://www.w3.org/1999/xlink" width="32" height="27" viewBox="0 0 32 27"><defs><path id="a" d="M1372 172.59v23.82a1.6 1.6 0 0 1-1.6 1.59h-8.53a1.6 1.6 0 0 1-1.6-1.59v-5.3H1356v2.12h.77c.57 0 1.09.32 1.36.82l.87 1.58a1.6 1.6 0 0 1-1.36 2.37h-10.75c-.55 0-1.05-.29-1.32-.76a1.6 1.6 0 0 1-.04-1.6l.88-1.6c.26-.5.78-.8 1.35-.8h.77v-2.12h-6.93a1.6 1.6 0 0 1-1.6-1.6v-12.7c0-.58.48-1.06 1.07-1.06h19.2v-3.17c0-.88.71-1.59 1.6-1.59h8.53c.88 0 1.6.71 1.6 1.59zm-30.93 4.76v10.6h22.4v-10.6c0-.29-.24-.53-.54-.53h-21.33a.53.53 0 0 0-.53.53zm15.7 16.94h-.77v.53c0 .59-.48 1.06-1.07 1.06h-5.33c-.59 0-1.07-.47-1.07-1.06v-.53h-.77c-.18 0-.34.1-.42.26l-.87 1.6c-.1.17-.09.38.01.55.09.15.24.24.41.24h10.75c.17 0 .33-.1.41-.24a.54.54 0 0 0 .01-.56l-.87-1.59a.47.47 0 0 0-.42-.26zm-1.84.53v-3.7h-5.33v3.7zm8-4.76c.3 0 .54-.24.54-.53V189h-22.4v.53c0 .3.24.53.53.53zm8 6.35V172.6c0-.3-.24-.53-.53-.53h-8.53c-.3 0-.54.24-.54.53v3.17h1.07v-2.11c0-.3.24-.53.53-.53h6.4c.3 0 .54.23.54.53v2.64c0 .3-.24.53-.54.53h-4.8v1.06h4.8c.3 0 .54.24.54.53v2.65c0 .3-.24.53-.54.53h-4.8v1.06h4.8c.3 0 .54.23.54.53 0 .29-.24.53-.54.53h-4.8v1.05h4.8c.3 0 .54.24.54.53 0 .3-.24.53-.54.53h-4.8v1.06h4.8c.3 0 .54.24.54.53 0 .3-.24.53-.54.53h-4.8V189h4.8c.3 0 .54.24.54.53 0 .3-.24.53-.54.53h-4.89a1.6 1.6 0 0 1-1.51 1.06h-1.6v5.3c0 .28.24.52.54.52h8.53c.29 0 .53-.24.53-.53zm-2.13-20.65v-1.58h-5.33v1.58zm-4.27 4.77h4.27v-1.59h-4.27zm4.8 13.23c0 1.17-.95 2.12-2.13 2.12a2.12 2.12 0 1 1 0-4.23c1.18 0 2.13.95 2.13 2.11zm-1.06 0c0-.58-.48-1.05-1.07-1.05-.59 0-1.07.47-1.07 1.05 0 .59.48 1.06 1.07 1.06.59 0 1.07-.47 1.07-1.06zm-4.27 0v.53c0 .3-.24.53-.53.53a.53.53 0 0 1-.54-.53v-.53c0-.29.24-.53.54-.53.29 0 .53.24.53.53zm-19.89-14.97l-1.07 1.06c-.1.1-.23.15-.37.15a.55.55 0 0 1-.38-.15.52.52 0 0 1 0-.75l1.07-1.06c.2-.2.54-.2.74 0 .21.2.22.54.01.75zm3.2 0l-3.2 3.17c-.21.2-.55.2-.75 0a.52.52 0 0 1 0-.75l3.2-3.17c.2-.2.54-.2.75 0 .21.2.21.54 0 .75z"/></defs><desc>Generated with Avocode.</desc><g transform="translate(-1340 -171)"><use fill="#cacaca" xlink:href="#a"/><use xlink:href="#a"/></g></svg>