<svg xmlns="http://www.w3.org/2000/svg" xmlns:xlink="http://www.w3.org/1999/xlink" width="29" height="27" viewBox="0 0 29 27"><defs><path id="a" d="M888.27 197.52c0 .26-.22.48-.49.48h-12.56a.48.48 0 0 1-.49-.48c0-.27.22-.48.49-.48h3.38v-2.41a.48.48 0 0 1 .97 0v2.4h3.86v-2.4a.48.48 0 0 1 .97 0v2.4h3.38c.27 0 .49.22.49.49zm-6.27-6.75c0 .26-.22.48-.49.48a.48.48 0 0 1-.48-.48c0-.27.21-.48.48-.48s.49.21.49.48zm7.38-14.13a.48.48 0 1 1 .68-.68l.97.97a.48.48 0 0 1-.35.82.48.48 0 0 1-.34-.14zm-2.9 0a.48.48 0 1 1 .68-.68l3.87 3.86a.48.48 0 0 1-.35.82.48.48 0 0 1-.34-.14zm9.52-3.23v17.36a2.54 2.54 0 0 1-2.42 2.4h-24.16a2.54 2.54 0 0 1-2.42-2.4V173.4a2.54 2.54 0 0 1 2.42-2.41h24.16a2.54 2.54 0 0 1 2.42 2.41zm-.97 17.36V173.4c0-.7-.74-1.45-1.45-1.45h-24.16c-.7 0-1.45.75-1.45 1.45v17.36c0 .7.74 1.44 1.45 1.44h24.16c.7 0 1.45-.74 1.45-1.44zm-.96-17.36v15.43c0 .26-.22.48-.49.48h-24.16a.48.48 0 0 1-.49-.48V173.4c0-.26.22-.48.49-.48h24.16c.27 0 .49.21.49.48zm-.97 14.95v-14.47h-23.2v14.47z"/></defs><desc>Generated with Avocode.</desc><g transform="translate(-867 -171)"><use xlink:href="#a"/><use fill="#fff" xlink:href="#a"/></g></svg>